<?xml version="1.0" encoding="utf-8"?>
<!-- Generator: Adobe Illustrator 20.1.0, SVG Export Plug-In . SVG Version: 6.00 Build 0)  -->
<svg version="1.1" id="图层_1" xmlns="http://www.w3.org/2000/svg" xmlns:xlink="http://www.w3.org/1999/xlink" x="0px" y="0px"
	 width="13px" height="13px" viewBox="0 0 13 13" style="enable-background:new 0 0 13 13;" xml:space="preserve">
<style type="text/css">
	.st0{fill:#32AF5A;}
</style>
<g>
	<path class="st0" d="M6.5,13C2.9,13,0,10.1,0,6.5S2.9,0,6.5,0c2.5,0,4.7,1.4,5.8,3.6c0.1,0.2,0.1,0.4-0.1,0.6L7.6,8.8
		c-0.7,0.7-2,0.7-2.8,0L2.3,6.3c-0.2-0.2-0.2-0.5,0-0.7s0.5-0.2,0.7,0l2.5,2.5c0.4,0.4,1,0.4,1.3,0l4.4-4.4C10.3,2,8.5,1,6.5,1
		C3.5,1,1,3.5,1,6.5S3.5,12,6.5,12S12,9.5,12,6.5C12,6.2,12.2,6,12.5,6S13,6.2,13,6.5C13,10.1,10.1,13,6.5,13z"/>
</g>
</svg>
