<svg width="443" height="430" xmlns="http://www.w3.org/2000/svg" xmlns:xlink="http://www.w3.org/1999/xlink"><defs><linearGradient x1="86.171%" y1="38.176%" x2="0%" y2="57.089%" id="c"><stop stop-color="#575075" offset="0%"/><stop stop-color="#2F2C51" offset="100%"/></linearGradient><path d="M.454 130.873h218.361V5a5 5 0 00-5-5H5.455a5 5 0 00-5 5v125.873z" id="a"/></defs><g fill="none" fill-rule="evenodd"><path fill="#D8D8D8" d="M296.834 369.632h15.98v-54.55h-15.98zM75.771 430h15.98V315.082h-15.98z"/><path fill="#C8C8C8" d="M296.834 337.05h15.98v-21.968h-15.98zm-221.063 0h15.98v-21.968h-15.98z"/><g transform="translate(0 299.064)"><path d="M316.875 19.285H9.081c-5.015 0-9.081-6.268-9.081-14h324.936V6.86c0 6.863-3.61 12.426-8.06 12.426" fill="#ECDBC6"/><rect fill="#9BCDFE" x="54.464" width="169.126" height="5.285" rx="2.643"/></g><path d="M56 293.504h236.475V149c0-5.523-4.477-10-10-10H66c-5.523 0-10 4.477-10 10v144.504z" fill="#D4E6FF"/><g transform="translate(63.7 147.766)"><mask id="b" fill="#fff"><use xlink:href="#a"/></mask><use fill="#70A1FF" xlink:href="#a"/><g mask="url(#b)"><path fill="#F9C4B2" d="M120.453 125.582l21.528-11.87-21.528 31.746z"/><path d="M154.464 95.523c9.995 10.412 13.817 30.655 16.78 40.97-4.66 1.616-135.624-.965-138.168-1.134 10.307-31.094 16.623-40.785 27.63-48.077 11.008-7.292 29.497-12.036 47.206-10.522 17.709 1.513 36.557 8.352 46.552 18.763z" fill="#FFF"/><path fill="#0079F2" d="M101.405 89.878l12.508.186-2.367 10.55h-6.813z"/><path d="M118.538 84.465l.639-21.47-20.375-5.071-3.896 20.209c0 5.271 22.522 11.604 23.632 6.332z" fill="#FFDEDF"/><path d="M94.125 27.505c0-10.423 18.352-8.024 28.486-8.024 10.133 0 8.212 16.633 8.212 23.739 0 7.105-2.164 15.303-6.27 19.774-3.798 4.135-9.15 3.245-12.234 3.245-6.107 0-13.847-3.417-16.148-11.137-.264.037-1.062-.65-2.942-1.762-1.88-1.111-2.84-3.226-2.84-6.525 0-3.299 1.856-3.595 3.736-3.595V27.505z" fill="#FEEBEC"/><path d="M119.694 51.424c-6.905-.393-11.749-1.93-14.533-4.609-2.035 5.882 1.583 10.087 6.878 10.087 3.53 0 6.082-1.826 7.655-5.478z" fill="#FC6252"/><path d="M141.159 9.063c-.205 5.043-1.558 8.639-4.06 10.787-3.754 3.221-4.676 3.98-10.295 5.413-5.62 1.432-17.348-2.095-23.723-2.095-4.25 0-6.975 7.283-8.175 21.85-.634-1.064-1.746-1.596-3.335-1.596-.82-4.906.46-26.614 2.384-28.606 4.043-4.188 18.573-6.958 28.76-4.9 6.791 1.373 12.939 1.089 18.444-.853z" fill="#2C2F33"/><path d="M96.008 71.713c1.623 2.677 3.552 5.034 5.787 7.07 2.235 2.037 4.581 4.37 7.038 6.999l-6.435 7.383a1 1 0 01-1.355.142c-2.853-2.15-5.172-4.658-6.956-7.525a115.283 115.283 0 01-5.364-9.615l7.285-4.454zm12.932 14.102c2.955-2.834 5.082-4.996 6.379-6.484 1.297-1.488 2.533-3.756 3.708-6.804l6.563 7.307c-.744 2.061-2.082 4.557-4.015 7.489a66.122 66.122 0 01-6.256 8.092l-6.38-9.6z" fill="#FFF"/><path fill="#0079F2" d="M111.546 100.613l5.123 32.64h-16.667l4.69-32.64z"/></g></g><path d="M255.946 0h-91.052c-5.522 0-10 4.477-10 10v48.878c0 5.523 4.478 10 10 10h83.428c3.906 4.77 7.716 8.528 11.431 11.271 3.715 2.743 9.13 6.013 16.247 9.809l-2.218-4.097a65 65 0 01-7.836-30.941V10c0-5.523-4.477-10-10-10z" fill="#DFEFFF"/><g transform="matrix(-1 0 0 1 124 110)"><path d="M17.118 0h58.618c5.523 0 10 4.477 10 10v29.42c0 5.524-4.477 10-10 10H19.594c-2.765 3.424-5.462 6.12-8.092 8.088C8.872 59.476 5.038 61.822 0 64.546a60.365 60.365 0 007.118-28.437V10c0-5.523 4.477-10 10-10z" fill="#DFEFFF"/><rect fill="#0079F2" x="20.094" y="14.096" width="52.246" height="5.379" rx="1"/><rect fill="#0079F2" x="20.042" y="28.934" width="20.825" height="5.379" rx="1"/></g><path d="M278.079 132.003c-.438 10.065.186 17.54 1.874 22.427 2.532 7.33 4.332 13.246 9.51 14.468 5.177 1.222 7.357 0 7.357 0l1.874 30.277 37.232-2.105c-9.948-33.423-15.277-51.177-15.986-53.263-1.538-4.525-3.838-3.89-5.92-3.557-2.081.334-4.918 4.236-4.918 4.236l1.614-19.613-32.637 7.13z" fill="#FFE0DB"/><path fill="#F9C4B2" d="M326.513 162.823l-29.693 6.416.96 12.664 37.343 13.178z"/><path d="M22.49 14.664c20.614-3.279 30.305 4.4 55.78 8.333 8.905 1.375 24.582-5.92 31.841-11.612C117.371 5.693 128.587 0 141.796 0s21.092 8.455 25 14.664c3.906 6.209 2.124 13.279-.308 17.594-2.431 4.315-4.546 8.625-12.425 13.283-7.878 4.657-6.823 13.282-15.617 22.77-8.795 9.487-24.655 15.32-36.192 13.592-11.538-1.727-17.731-7.884-36.485-2.207-18.753 5.677-45.018-3.593-51.025-7.59C8.795 68.148-1.673 62.618.277 40.883 1.504 27.209 12.2 16.3 22.49 14.664z" fill="url(#c)" transform="matrix(-1 0 0 1 443 104)"/><path d="M233.817 255.968s-7.952 35.955-22.833 37.643c-19.03 2.16-48.514-6.554-65.93-6.7-14.127-.118-21.51 5.972-26.478 12.069-.883 1.085-.617 2.567.751 2.387 4.756-.627 9.043-3.266 15.616-5.153 8.921-2.56 13.957-1.274 18.637 3.044 2.532 2.336 39.851 36.369 59.51 38.078 40.48 3.52 58.6-70.235 58.6-70.235l-37.873-11.133z" fill="#FFE0DB"/><path fill="#F9C4B2" d="M234.113 260.484l33.23 23.015 9.873-24.227z"/><path d="M233.008 258.783s1.456-21.36 8.185-38.34c6.729-16.98 16.967-24.527 34.474-28.3 15.994-3.448 51.975-7.998 74.789 0 25.264 8.855 41.013 25.659 41.013 50.385l-.575 88.635c0 10.115 2.848 13.114 0 22.694-4.113 13.838-109.094-1.064-115.227-10.366 0-5.314-5.714-58.028-7.125-78.389l-35.534-6.319z" fill="#FF6A00"/><path d="M186.588 331.986c-20.205-.411-32.413 2.96-36.624 10.115-4.21 7.155 6.809 36.454 33.058 87.899h44.994l-41.428-98.014z" fill="#FFE0DB"/><path d="M176.641 331.965l40.287 93.59 160.636-.026c1.777-20.342 1.777-36.922 0-49.74-1.777-12.819-4.764-30.367-8.962-52.647h-95.568v8.823H176.64z" fill="#2C2F33"/><path d="M362 418H201.397a4.455 4.455 0 00-4.178 6 9.186 9.186 0 008.616 6H362v-12z" fill="#0F5AD5"/><path d="M419.879 244.292c12.77 0 23.121 15.794 23.121 35.276V430H319.215V279.568c0-19.482 10.352-35.276 23.121-35.276h77.543z" fill="#418BFF"/><path d="M216.818 26.618c0-2.55 2.043-4.618 4.563-4.618 2.52 0 4.564 2.068 4.564 4.618 0 2.551-2.044 4.619-4.564 4.619s-4.563-2.068-4.563-4.619zm-22.818 0c0-2.55 2.043-4.618 4.564-4.618 2.52 0 4.563 2.068 4.563 4.618 0 2.551-2.043 4.619-4.563 4.619-2.52 0-4.564-2.068-4.564-4.619zm29.07 12.33c1.225.807 1.597 2.477.798 3.717-3.012 4.819-8.262 7.73-13.896 7.706-5.634.024-10.884-2.887-13.896-7.706a2.719 2.719 0 01.799-3.718 2.648 2.648 0 013.674.808c2.045 3.265 5.604 5.238 9.423 5.226 3.834 0 7.347-1.94 9.424-5.226.799-1.24 2.448-1.616 3.674-.808z" fill="#0079F2" fill-rule="nonzero"/></g></svg>