<?xml version="1.0" standalone="no"?><!DOCTYPE svg PUBLIC "-//W3C//DTD SVG 1.1//EN" "http://www.w3.org/Graphics/SVG/1.1/DTD/svg11.dtd"><svg t="1593836419951" class="icon" viewBox="0 0 2275 1024" version="1.1" xmlns="http://www.w3.org/2000/svg" p-id="1866" xmlns:xlink="http://www.w3.org/1999/xlink" width="444.3359375" height="200"><defs><style type="text/css"></style></defs><path d="M28.448 512c0 267.104 216.512 483.552 483.648 483.552h1251.36c267.2 0 483.648-216.448 483.648-483.552S2030.592 28.448 1763.456 28.448H512.096C244.896 28.448 28.448 244.896 28.448 512zM0 512C0 229.216 229.12 0 512.096 0h1251.36c282.816 0 512.096 229.184 512.096 512 0 282.784-229.12 512-512.096 512H512.096C229.28 1024 0 794.816 0 512z m523.616 242.528h83.104V373.792h188.832V317.568h-259.712V274.784h259.712V218.56h48.896v56.224h271.328v42.784h-271.328v56.224H1040v380.736h87.392v42.784H523.616v-42.784z m130.176 0H992.96v-56.224H653.792v56.224z m339.136-340.384H653.76v55.616h339.168v-55.616zM653.792 659.2H992.96v-55.616H653.792V659.2z m0-94.72H992.96v-55.616H653.792v55.616z m1106.72-45.856c-11.392 17.504-21.376 32.992-29.952 46.432-77.408-31.776-134.432-74.336-171.104-127.712h-2.432v102.048h-44v-102.048h-1.824c-31.36 44.416-75.584 84.736-132.608 120.992h331.232v264h-42.784v-29.344h-262.176v29.344h-42.784v-253.6c-9.376 5.696-18.944 11.2-28.736 16.512-9.376-11.392-20.16-23.424-32.384-36.064 65.184-28.512 119.36-65.792 162.56-111.84h-130.784v-39.104h180.288V298.624c-51.744 3.264-104.704 5.92-158.88 7.936a594.88 594.88 0 0 0-8.544-40.96c149.504-4.896 271.744-12.416 366.656-22.624l8.544 41.568c-52.96 4.48-107.552 8.352-163.776 11.616v102.048h191.264v39.104h-144.832c38.688 37.088 91.04 64.16 157.056 81.28z m-615.392 31.168c26.496-10.592 53.792-21.6 81.888-32.992v-132.608h-77.6v-44h77.6V228.352h45.216v111.84h63.552v44h-63.552v113.664c17.92-7.744 36.064-15.68 54.4-23.84 1.216 17.504 3.072 32.8 5.504 45.824l-59.904 27.488v202.88c0 43.584-19.744 65.6-59.264 66.016-13.856 0.416-32.992 0.192-57.44-0.608a562.944 562.944 0 0 0-7.328-50.72c24.864 2.432 42.368 3.68 52.544 3.68 17.504 0 26.272-9.984 26.272-29.952v-170.496a16172.8 16172.8 0 0 0-72.736 33.6l-9.152-51.936z m411.264 205.344h110.624v-61.12h-110.624v61.12z m110.624-158.88h-110.624v61.12h110.624v-61.12z m-262.176 61.12h110.016v-61.12h-110.016v61.12z m0 97.76h110.016v-61.12h-110.016v61.12z m190.656-386.816a924.064 924.064 0 0 0 76.384-68.448l34.208 28.736a1778.944 1778.944 0 0 1-81.888 69.056l-28.736-29.344z m-226.72-32.416l29.344-26.272a1710.08 1710.08 0 0 1 67.84 58.656l-32.384 29.344a1174.688 1174.688 0 0 0-64.768-61.728z" p-id="1867" fill="#1296db"></path></svg>